April 1st Vidudhala (1991) DvdRip Telugu Movie - teluguppls



General

Format                           : MPEG-4
Format profile                   : JVT
File size                        : 693 MiB
Duration                         : 2h 22mn
Overall bit rate                 : 678 Kbps


Video

Format                           : AVC
Duration                         : 2h 22mn
Bit rate mode                    : Variable
Bit rate                         : 545 Kbps
Maximum bit rate                 : 1 635 Kbps
Width                            : 464 pixels
Height                           : 352 pixels
Display aspect ratio             : 4:3
Frame rate mode                  : Constant
Frame rate                       : 29.970 fps
Color space                      : YUV
Chroma subsampling               : 4:2:0
Bit depth                        : 8 bits
Scan type                        : Progressive
Bits/(Pixel*Frame)               : 0.111
Stream size                      : 557 MiB (80%)
Writing library                  : eavc 1.0.2.2
Language                         : English


Audio

Format                           : AAC
Duration                         : 2h 22mn
Bit rate mode                    : Variable
Bit rate                         : 128 Kbps
Maximum bit rate                 : 145 Kbps
Channel(s)                       : 6 channels
Channel positions                : Front: L C R, Side: L R, LFE
Sampling rate                    : 48.0 KHz / 24.0 KHz
Compression mode                 : Lossy
Stream size                      : 131 MiB (19%)
Language                         : English



PLEASE SEEEEEEEEEEEEEEDDDDDDDDDDDDDDDDD.......................


POST A COMMENT.............................


SCREENSHOTS
